<svg width="64" height="64" viewBox="0 0 64 64" fill="none" xmlns="http://www.w3.org/2000/svg">
<rect x="12" y="2" width="40" height="40" rx="10" fill="url(#paint0_linear_59_7636)"/>
<g filter="url(#filter0_dd_59_7636)">
<rect x="12" y="2" width="40" height="40" rx="10" fill="white" fill-opacity="0.01" shape-rendering="crispEdges"/>
</g>
<path d="M32 23C31.0167 23 30.1875 22.6625 29.5125 21.9875C28.8375 21.3125 28.5 20.4833 28.5 19.5C28.5 18.5167 28.8375 17.6875 29.5125 17.0125C30.1875 16.3375 31.0167 16 32 16C32.9833 16 33.8125 16.3375 34.4875 17.0125C35.1625 17.6875 35.5 18.5167 35.5 19.5C35.5 20.4833 35.1625 21.3125 34.4875 21.9875C33.8125 22.6625 32.9833 23 32 23V23M32 21C32.4333 21 32.7917 20.8583 33.075 20.575C33.3583 20.2917 33.5 19.9333 33.5 19.5C33.5 19.0667 33.3583 18.7083 33.075 18.425C32.7917 18.1417 32.4333 18 32 18C31.5667 18 31.2083 18.1417 30.925 18.425C30.6417 18.7083 30.5 19.0667 30.5 19.5C30.5 19.9333 30.6417 20.2917 30.925 20.575C31.2083 20.8583 31.5667 21 32 21V21M32 32C29.6833 31.4167 27.7708 30.0875 26.2625 28.0125C24.7542 25.9375 24 23.6333 24 21.1V15L32 12L40 15V21.1C40 23.6333 39.2458 25.9375 37.7375 28.0125C36.2292 30.0875 34.3167 31.4167 32 32V32M32 22V22V22V22V22V22V22V22V22V22M32 14.125L26 16.375V21.1C26 22 26.125 22.875 26.375 23.725C26.625 24.575 26.9667 25.375 27.4 26.125C28.1 25.775 28.8333 25.5 29.6 25.3C30.3667 25.1 31.1667 25 32 25C32.8333 25 33.6333 25.1 34.4 25.3C35.1667 25.5 35.9 25.775 36.6 26.125C37.0333 25.375 37.375 24.575 37.625 23.725C37.875 22.875 38 22 38 21.1V16.375L32 14.125V14.125M32 27C31.4 27 30.8167 27.0667 30.25 27.2C29.6833 27.3333 29.1417 27.5167 28.625 27.75C29.1083 28.25 29.6333 28.6833 30.2 29.05C30.7667 29.4167 31.3667 29.7 32 29.9C32.6333 29.7 33.2333 29.4167 33.8 29.05C34.3667 28.6833 34.8917 28.25 35.375 27.75C34.8583 27.5167 34.3167 27.3333 33.75 27.2C33.1833 27.0667 32.6 27 32 27V27" fill="white"/>
<defs>
<filter id="filter0_dd_59_7636" x="0" y="0" width="64" height="64" filterUnits="userSpaceOnUse" color-interpolation-filters="sRGB">
<feFlood flood-opacity="0" result="BackgroundImageFix"/>
<feColorMatrix in="SourceAlpha" type="matrix" values="0 0 0 0 0 0 0 0 0 0 0 0 0 0 0 0 0 0 127 0" result="hardAlpha"/>
<feMorphology radius="4" operator="erode" in="SourceAlpha" result="effect1_dropShadow_59_7636"/>
<feOffset dy="4"/>
<feGaussianBlur stdDeviation="3"/>
<feComposite in2="hardAlpha" operator="out"/>
<feColorMatrix type="matrix" values="0 0 0 0 0 0 0 0 0 0 0 0 0 0 0 0 0 0 0.1 0"/>
<feBlend mode="normal" in2="BackgroundImageFix" result="effect1_dropShadow_59_7636"/>
<feColorMatrix in="SourceAlpha" type="matrix" values="0 0 0 0 0 0 0 0 0 0 0 0 0 0 0 0 0 0 127 0" result="hardAlpha"/>
<feMorphology radius="3" operator="erode" in="SourceAlpha" result="effect2_dropShadow_59_7636"/>
<feOffset dy="10"/>
<feGaussianBlur stdDeviation="7.5"/>
<feComposite in2="hardAlpha" operator="out"/>
<feColorMatrix type="matrix" values="0 0 0 0 0 0 0 0 0 0 0 0 0 0 0 0 0 0 0.1 0"/>
<feBlend mode="normal" in2="effect1_dropShadow_59_7636" result="effect2_dropShadow_59_7636"/>
<feBlend mode="normal" in="SourceGraphic" in2="effect2_dropShadow_59_7636" result="shape"/>
</filter>
<linearGradient id="paint0_linear_59_7636" x1="12" y1="2" x2="52" y2="42" gradientUnits="userSpaceOnUse">
<stop stop-color="#032448"/>
<stop offset="1" stop-color="#1F3A5F"/>
</linearGradient>
</defs>
</svg>
